# xmcd
#
# Track frame offsets:
#	150
#	20026
#	38649
#	55376
#	74978
#	93520
#	111700
#	135047
#	153909
#	174536
#	198074
#	217652
#	235370
#
# Disc length: 3380 seconds
#
# Revision: 2
# Processed by: cddbd v1.5.2PL0 Copyright (c) Steve Scherf et al.
# Submitted via: EZCDAudioConverter 8.0.2.1
#
DISCID=b40d320d
DTITLE=Various Artist - Gió Mùa Xuân Tới
DYEAR=2007
DGENRE=Pop
TTITLE0=Hồ Lệ Thu, Bảo Hân - Gió Mùa Xuân Tới
TTITLE1=Minh Tuyết - Xuân này nếu vắng anh
TTITLE2=Lương Tùng Quang, Tú Quyên - Thiên duyên tiền định
TTITLE3=Tốp ca - Xuân trong rừng thẳm
TTITLE4=Nguyễn Hưng - Đầu xuân lính chúc
TTITLE5=Loan Châu - Mộng lành
TTITLE6=Bằng Kiều - Em đến thăm anh đêm 30
TTITLE7=Ngọc Liên - Hơi thỏe mùa xuân
TTITLE8=Trần Thu Hà - Mộ nét ca trù ngày xuân
TTITLE9=Tốp ca - LK Chiều xuân, Thì thầm mùa xuân
TTITLE10=Thanh Trúc and Như Loan - Xuân mộng
TTITLE11=Tốp ca - Xuân nghệ sĩ hành khúc
TTITLE12=Hợp Ca - Mừng nắng xuân về
EXTD=
EXTT0=
EXTT1=
EXTT2=
EXTT3=
EXTT4=
EXTT5=
EXTT6=
EXTT7=
EXTT8=
EXTT9=
EXTT10=
EXTT11=
EXTT12=
PLAYORDER=
